<svg width="80" height="80" viewBox="0 0 80 80" fill="none" xmlns="http://www.w3.org/2000/svg">
<g id="whole-grain-dark-green">
<g id="Page-1">
<g id="Whole-grain-DARK-GREEN">
<path id="Mask-Copy" fill-rule="evenodd" clip-rule="evenodd" d="M78.2591 32.7323C77.7261 28.3568 76.9247 23.9616 75.0563 19.8594C73.1522 15.6788 69.6758 11.6507 64.1726 8.97715C58.5358 6.23869 51.3328 5.14815 44.3577 4.16891C38.4198 3.33528 32.1809 2.53454 26.3213 3.56034C20.8357 4.52062 16.2902 7.0203 13.1237 9.96922C9.95713 12.9181 8.03017 16.3087 6.37906 19.7035C2.39331 27.8987 -0.180281 36.4429 0.414965 44.9974C1.01026 53.5518 4.91884 62.1436 12.9648 69.0886C16.0762 71.7743 19.9035 74.2512 24.7491 75.6173C29.3901 76.9258 34.6733 77.1269 39.7341 76.7608C54.5717 75.6875 68.2234 69.6015 74.6332 61.2032C79.56 54.7479 79.9348 47.5783 79.1078 40.5739C78.8054 38.0133 78.5813 35.3764 78.2591 32.7323Z" fill="#B64A26"/>
<g id="Group-Copy">
<path id="Stroke-1" d="M47.9307 12.5713C31.8058 19.2483 22.6372 32.2312 22.6372 47.1068C22.6372 56.7918 26.0438 63.415 32.8577 66.8411L33.1375 66.9818L33.4361 66.887C50.3075 61.5291 58.7911 49.4059 58.7911 30.687C58.7911 29.2086 57.4416 23.9096 55.9196 20.1004L55.6933 19.5455C53.4568 14.1742 50.892 11.3451 47.9307 12.5713ZM54.4909 20.6712L54.684 21.1654C56.0602 24.7629 57.2526 29.4978 57.2526 30.687L57.2502 31.2269C57.0921 48.7988 49.19 60.0915 33.4546 65.2642L33.2703 65.323L32.9809 65.1682C27.111 61.948 24.1757 55.9684 24.1757 47.1068C24.1757 32.8697 32.9555 20.4373 48.5193 13.9927C50.3671 13.2276 52.5143 15.7241 54.4909 20.6712Z" fill="white"/>
<path id="Path" fill-rule="evenodd" clip-rule="evenodd" d="M44.9018 24.761C33.1661 29.6136 27.2527 38.9125 27.2527 48.7814C27.2527 55.4665 29.5746 59.9753 34.219 62.3077C45.985 58.5761 51.8681 50.1805 51.8681 37.1208C51.8681 35.7262 48.8492 23.1286 44.9018 24.761Z" fill="white" fill-opacity="0.3"/>
<path id="Path_2" fill-rule="evenodd" clip-rule="evenodd" d="M42.7977 51.6097C41.8333 55.7715 37.0114 57.6923 35.7255 57.6923C34.4396 57.6923 31.8679 57.052 31.8679 53.5305C31.8679 50.009 34.7611 49.6888 36.3684 48.4083C37.9758 47.1277 40.5475 44.8868 40.5475 43.2861C40.5475 41.6854 42.1548 42.0055 42.7977 44.5666C43.4407 47.1277 43.7621 47.4479 42.7977 51.6097Z" fill="white"/>
</g>
</g>
</g>
</g>
</svg>
